<svg width="40" height="40" viewBox="0 0 40 40" fill="none" xmlns="http://www.w3.org/2000/svg">
<path d="M33.4167 18.3333H6.58333C5.70888 18.3333 5 18.9713 5 19.7583V19.9083C5 20.6953 5.70888 21.3333 6.58333 21.3333H33.4167C34.2911 21.3333 35 20.6953 35 19.9083V19.7583C35 18.9713 34.2911 18.3333 33.4167 18.3333Z" fill="white"/>
<path d="M33.4167 26.6667H6.58333C5.70888 26.6667 5 27.3047 5 28.0917V28.2417C5 29.0287 5.70888 29.6667 6.58333 29.6667H33.4167C34.2911 29.6667 35 29.0287 35 28.2417V28.0917C35 27.3047 34.2911 26.6667 33.4167 26.6667Z" fill="white"/>
<path d="M33.4167 10H6.58333C5.70888 10 5 10.638 5 11.425V11.575C5 12.362 5.70888 13 6.58333 13H33.4167C34.2911 13 35 12.362 35 11.575V11.425C35 10.638 34.2911 10 33.4167 10Z" fill="white"/>
</svg>
